PathFileType	4	(X/Y/Z)	2014001\dynamic\2014001_C1_05.trc
DataRate	CameraRate	NumFrames	NumMarkers	Units	OrigDataRate	OrigDataStartFrame	OrigNumFrames
100.000000	100.000000	4	52	mm	100.000000	68	549
Frame#	Time	L_IAS			L_IPS			R_IPS			R_IAS			L_FTC			L_FLE			L_FME			L_FAX			L_TTC			L_FAL			L_TAM			L_FCC			L_FM1			L_FM2			L_FM5			R_FTC			R_FLE			R_FME			R_FAX			R_TTC			R_FAL			R_TAM			R_FCC			R_FM1			R_FM2			R_FM5			CV7			TV10			SXS			SJN			L_SIA			L_SRS			L_SAA			L_SAE			L_HLE			L_HME			L_UOA			L_RSP			L_UHE			L_HM2			L_HM5			R_SIA			R_SRS			R_SAA			R_SAE			R_HLE			R_HME			R_UOA			R_RSP			R_UHE			R_HM2			R_HM5			
		X1	Y1	Z1	X2	Y2	Z2	X3	Y3	Z3	X4	Y4	Z4	X5	Y5	Z5	X6	Y6	Z6	X7	Y7	Z7	X8	Y8	Z8	X9	Y9	Z9	X10	Y10	Z10	X11	Y11	Z11	X12	Y12	Z12	X13	Y13	Z13	X14	Y14	Z14	X15	Y15	Z15	X16	Y16	Z16	X17	Y17	Z17	X18	Y18	Z18	X19	Y19	Z19	X20	Y20	Z20	X21	Y21	Z21	X22	Y22	Z22	X23	Y23	Z23	X24	Y24	Z24	X25	Y25	Z25	X26	Y26	Z26	X27	Y27	Z27	X28	Y28	Z28	X29	Y29	Z29	X30	Y30	Z30	X31	Y31	Z31	X32	Y32	Z32	X33	Y33	Z33	X34	Y34	Z34	X35	Y35	Z35	X36	Y36	Z36	X37	Y37	Z37	X38	Y38	Z38	X39	Y39	Z39	X40	Y40	Z40	X41	Y41	Z41	X42	Y42	Z42	X43	Y43	Z43	X44	Y44	Z44	X45	Y45	Z45	X46	Y46	Z46	X47	Y47	Z47	X48	Y48	Z48	X49	Y49	Z49	X50	Y50	Z50	X51	Y51	Z51	X52	Y52	Z52	

69	0.68	352.6567382812501	878.8721313476567	270.0885314941407	297.268524169922	921.492553710938	85.21607971191409	208.5711212158204	920.6484985351567	75.52841949462893	112.3198318481446	882.8761596679692	240.6650543212892	414.3907165527346	795.5131225585942	200.3645324707032	364.2548828125001	440.4483642578127	228.0722961425782	248.6150970458986	440.2417297363284	242.9248809814454	364.7671203613282	376.4651184082032	211.8399658203126	315.1364135742189	364.9308166503907	273.8084106445314	303.7689208984376	60.27831649780276	202.108367919922	218.0391082763673	74.66641998291018	228.0005798339845	253.6563873291017	19.44947052001954	160.6517181396485	238.4878997802736	27.1368980407715	343.3784790039064	301.1408996582032	37.55436325073244	347.9461364746095	343.837615966797	24.13876533508302	291.4827270507814	66.72312164306643	798.6182250976567	128.5435791015626	65.3361740112305	458.7547607421877	74.3304138183594	176.5773162841797	424.7971191406252	109.0801544189454	62.57349395751956	410.3690490722659	27.03488731384279	97.16721343994146	365.8085327148439	86.11440277099612	107.2893142700196	157.4402313232422	-165.4000244140626	181.4961242675782	143.7186431884766	-111.3416824340821	172.0878601074219	146.6831359863282	-209.568328857422	169.5292510986329	27.35467910766603	-82.3386154174805	107.7167587280274	35.13661193847658	-81.84440612792972	70.88441467285159	47.85586547851564	-133.6257934570313	259.4991455078126	1385.054931640625	104.3431854248047	260.5578918457032	1150.117553710938	43.46592330932619	255.7924041748048	1156.798095703125	272.9546203613282	259.3763427734376	1318.390625	231.3518524169923	352.2587280273439	1187.500854492188	40.65047836303712	346.3526306152345	1319.127685546875	59.42576599121097	453.0467529296877	1317.264770507813	132.754867553711	438.7428894042971	1328.4794921875	173.7910614013672	517.3511962890627	1046.233764648438	134.1361999511719	440.9331359863284	1013.107116699219	111.9142303466797	490.4920349121096	1011.390502929688	102.0342330932618	486.2481994628909	821.6623535156255	244.1871185302736	550.1247558593752	815.8337402343755	195.7220458984376	497.8162841796877	743.5557861328127	280.8428649902345	553.9048461914065	736.993103027344	196.4631195068361	144.8886871337891	1197.175170898438	33.03284835815431	170.7188415527344	1320.350708007813	61.45719528198245	66.13601684570315	1319.8125	138.7199401855469	78.4629821777344	1323.625122070313	187.8588867187501	-0.1562616527080536	1020.728759765625	149.599838256836	74.1130065917969	1002.38623046875	122.7756652832032	27.84381675720216	993.3041992187505	120.7875289916993	37.90877532958986	831.9323120117192	280.6509704589845	-26.14185333251955	819.7570190429692	232.8410186767579	18.59848785400391	763.3533935546877	336.8783264160157	-27.38753318786623	741.778503417969	244.1575622558595	
70	0.6900000000000001	354.2120056152345	878.710327148438	272.7087707519532	298.9072265625001	921.512329101563	87.86690521240237	210.1838378906251	920.7043457031255	78.09254455566409	113.8711700439454	883.1160278320317	243.2686309814454	415.7962036132815	795.3754882812505	202.9512329101564	365.0428466796876	440.233337402344	229.5858764648439	249.4557342529298	440.2254333496096	244.8343811035157	365.3886108398439	376.283172607422	213.0826110839845	315.8809204101564	364.6375732421876	275.0662536621095	303.7863159179689	60.24544143676761	202.1181182861329	218.1489410400392	74.60415649414065	228.0265502929689	253.6445312500001	19.49165344238282	160.6301727294922	238.5225524902345	27.30419921875001	343.3536682128907	301.2030639648439	37.53903961181642	347.9019470214845	343.832733154297	24.11865997314455	291.492401123047	68.27577209472659	798.636352539063	131.3015136718751	65.41905212402347	458.4945983886721	79.33792114257815	176.6925048828126	424.0885009765627	114.3232879638672	62.60956954956058	410.5491943359377	32.09632110595705	97.05708312988287	365.3963317871095	90.87051391601565	107.4144515991212	159.5839233398438	-162.6528472900391	181.6328430175782	145.3236846923829	-108.9168167114258	172.3331298828126	149.4363098144532	-206.9746246337892	169.7503509521485	28.3012161254883	-81.54533386230472	107.6610336303712	35.686580657959	-81.15970611572268	71.20307922363284	49.58491134643558	-132.5772552490235	261.1722106933595	1385.146728515625	107.3523864746094	262.2598571777345	1150.301879882813	46.32590103149415	257.4878540039064	1156.840576171875	275.8540649414064	261.1011047363282	1318.487915039063	234.3521575927736	353.9671020507814	1187.655639648438	43.61211013793947	348.0301513671876	1319.246337890625	62.41890716552737	454.7444458007815	1317.3740234375	135.7259216308594	440.4319152832034	1328.57373046875	176.769271850586	518.9566040039065	1046.253051757813	137.3299407958985	442.5147399902346	1013.123962402344	115.1899719238282	492.0584106445315	1011.339782714844	105.2515411376954	487.7033386230471	821.9924926757817	247.9603118896486	551.5357055664065	815.963012695313	199.4758300781251	499.2505493164065	743.952575683594	284.8367309570314	555.2239990234377	737.1111450195315	200.4114379882814	146.4701080322266	1197.3603515625	36.12422180175783	172.3317108154297	1320.522094726563	64.49589538574222	67.80905914306643	1319.953247070313	141.8805389404297	80.22428894042972	1323.771118164063	190.9952697753907	1.525490522384644	1020.738159179688	153.362045288086	75.74565887451175	1002.46728515625	126.1876983642579	29.47866439819337	993.3499145507817	124.2471008300782	39.87694549560548	832.437377929688	284.5625000000001	-24.21343231201173	820.0520019531255	236.8877868652345	20.68902778625489	763.9604492187502	341.029998779297	-25.38515090942384	742.1209716796877	248.486053466797	
71	0.7000000000000001	355.7657165527345	878.5549316406255	275.2461242675782	300.5196838378907	921.5080566406255	90.42733001708987	211.7684783935548	920.7255249023442	80.58145141601565	115.4098892211915	883.3667602539067	245.8133850097657	417.1912231445315	795.2310180664067	205.4255676269532	365.8315734863282	440.0178833007815	231.0205841064454	250.3143920898439	440.1936645507815	246.7302398681642	366.002166748047	376.1023254394532	214.2521057128907	316.6500244140626	364.350311279297	276.268768310547	303.8039550781251	60.221305847168	202.1107482910157	218.2652893066407	74.55694580078128	228.0649414062501	253.6306304931642	19.54136657714844	160.610336303711	238.5850677490236	27.50998497009279	343.3265380859376	301.2935791015626	37.52695846557619	347.8473510742189	343.8382263183595	24.0897674560547	291.4978332519532	69.79750823974612	798.6201782226567	134.0236511230469	65.47692871093753	458.1907348632815	84.51138305664065	176.8085174560547	423.3572998046877	119.7045135498047	62.62034606933597	410.679382324219	37.34671783447267	96.95386505126959	364.9502868652345	95.7932052612305	107.5674057006837	161.837387084961	-159.8005523681641	181.8228759765626	147.0369110107422	-106.4193572998047	172.5927124023438	152.3322296142579	-204.3038635253907	169.9847412109376	29.36838150024415	-80.64578247070315	107.6348114013672	36.36243820190431	-80.35765075683597	71.53385162353518	51.49983215332034	-131.4160461425782	262.8214111328126	1385.235473632813	110.3175277709962	263.9351501464845	1150.493774414063	49.10694122314456	259.1551818847657	1156.856201171875	278.6758728027345	262.7979125976564	1318.565185546875	237.3003997802736	355.662567138672	1187.825439453125	46.49645996093751	349.6936645507814	1319.375122070313	65.36302185058597	456.4224548339846	1317.477172851563	138.6673431396485	442.0918579101565	1328.654418945313	179.7194519042969	520.5313720703127	1046.258178710938	140.4721221923829	444.0679016113284	1013.134521484375	118.3949356079102	493.5996093750002	1011.274841308594	108.4119338989258	489.0644531250002	822.3319702148442	251.7054595947267	552.8718261718752	816.0766601562505	203.1962738037111	500.5736083984377	744.3518066406252	288.7891540527345	556.4577636718752	737.2135009765627	204.340301513672	148.0206604003907	1197.560668945313	39.14636611938478	173.9187164306641	1320.698608398438	67.48382568359378	69.45530700683597	1320.089721679688	144.9941101074219	81.96236419677737	1323.906127929688	194.0780487060548	3.169260501861574	1020.746826171875	157.0213165283204	77.34146881103518	1002.544616699219	129.5057983398438	31.0736541748047	993.394165039063	127.6072540283204	41.76939392089845	832.923950195313	288.3485412597657	-22.35167884826661	820.338500976563	240.7922515869142	22.69781684875489	764.5293579101565	345.0383300781251	-23.44232749938966	742.4402465820315	252.6791381835939	
72	0.71	357.3181152343751	878.4069213867192	277.7050781250001	302.103485107422	921.481079101563	92.90345764160159	213.3226165771486	920.7133178710942	83.00041198730472	116.9368591308594	883.6239624023442	248.303924560547	418.5779113769534	795.0790405273442	207.7866821289064	366.622772216797	439.8030700683596	232.3712615966798	251.1930236816407	440.1380004882815	248.5801239013673	366.6104431152345	375.9231872558595	215.3446502685548	317.4424743652345	364.0695800781251	277.4095764160157	303.8223266601564	60.20662689208987	202.0865325927736	218.3849945068361	74.528678894043	228.1180419921876	253.6156616210939	19.5972023010254	160.5920867919922	238.6760101318361	27.75242424011232	343.2980957031251	301.4127197265626	37.51739501953126	347.7826232910157	343.8557434082032	24.0517044067383	291.498504638672	71.28730010986331	798.5695190429692	136.7217102050782	65.51587677001956	457.8468322753909	89.85214996337893	176.9291229248047	422.6116638183596	125.222152709961	62.60636138916018	410.765808105469	42.7838821411133	96.86174774169928	364.4766540527345	100.8829421997071	107.7535781860352	164.196517944336	-156.8310546875001	182.0669708251954	148.8482513427735	-103.8256530761719	172.8696746826172	155.3635711669922	-201.5386505126954	170.2164306640626	30.54867553710939	-79.62574005126956	107.6393127441407	37.16190719604494	-79.41981506347659	71.86875152587893	53.59883499145511	-130.1209869384766	264.4464111328126	1385.319946289063	113.2354812622071	265.5830383300782	1150.689453125	51.80955886840823	260.7913818359376	1156.844848632813	281.4194946289064	264.4651489257814	1318.620727539063	240.1935424804689	357.3447875976564	1188.008056640625	49.29548263549808	351.3421325683595	1319.5107421875	68.25599670410159	458.0799865722659	1317.570922851563	141.5770263671876	443.7219543457034	1328.719116210938	182.6383666992188	522.0784912109377	1046.247802734375	143.5632629394532	445.5975341796877	1013.13623046875	121.5245742797852	495.1226501464846	1011.194702148438	111.5178222656251	490.3300476074221	822.6758422851567	255.4192504882814	554.1351318359377	816.1721801757817	206.8817138671876	501.7823486328127	744.7503662109377	292.6938476562501	557.6116943359377	737.2994384765627	208.2483673095704	149.5417480468751	1197.772583007813	42.09468841552736	175.4808197021485	1320.877563476563	70.41699981689456	71.07430267333987	1320.219970703125	148.0548706054688	83.67442321777347	1324.026611328125	197.1047668457032	4.770114421844484	1020.756713867188	160.5616607666016	78.89492797851565	1002.615966796875	132.7230987548829	32.62405395507814	993.4356079101567	130.8629608154297	43.5883140563965	833.3869018554692	292.0049743652345	-20.55972480773926	820.615356445313	244.5538024902345	24.62596321105958	765.0628662109377	348.9011840820314	-21.56377029418946	742.737243652344	256.7332153320314	
